<svg width="16" height="14" viewBox="0 0 16 14" fill="none" xmlns="http://www.w3.org/2000/svg">
<path d="M8.7998 10.7998H14.7998" stroke="#30323A" stroke-width="1.5" stroke-linecap="round" stroke-linejoin="round"/>
<path d="M1.2002 10.7998H4.2002" stroke="#30323A" stroke-width="1.5" stroke-linecap="round" stroke-linejoin="round"/>
<path d="M8.7998 10.8C8.7998 12 7.7998 13 6.5998 13C5.3998 13 4.3998 12 4.2998 10.8C4.2998 9.6 5.2998 8.5 6.4998 8.5C7.0998 8.5 7.6998 8.7 8.0998 9.2C8.4998 9.6 8.7998 10.2 8.7998 10.8Z" stroke="#30323A" stroke-width="1.5" stroke-linecap="round" stroke-linejoin="round"/>
<path d="M10.2002 3.2002H1.2002" stroke="#30323A" stroke-width="1.5" stroke-linecap="round" stroke-linejoin="round"/>
<path d="M14.7998 3.2C14.7998 2 13.7998 1 12.5998 1C11.3998 1 10.3998 2 10.2998 3.2C10.2998 4.4 11.2998 5.5 12.4998 5.5C13.6998 5.5 14.6998 4.5 14.7998 3.2Z" stroke="#30323A" stroke-width="1.5" stroke-linecap="round" stroke-linejoin="round"/>
</svg>
